G04 #@! TF.FileFunction,Legend,Top*
%FSLAX46Y46*%
G04 Gerber Fmt 4.6, Leading zero omitted, Abs format (unit mm)*
G04 Created by KiCad (PCBNEW (2015-07-02 BZR 5871, Git 766da1e)-product) date 15-9-2015 00:01:28*
%MOMM*%
G01*
G04 APERTURE LIST*
%ADD10C,0.100000*%
%ADD11C,0.152400*%
%ADD12C,0.300000*%
%ADD13C,0.150000*%
%ADD14C,0.165100*%
%ADD15C,0.248920*%
%ADD16C,0.304800*%
%ADD17C,0.200000*%
%ADD18C,0.170000*%
%ADD19C,0.203200*%
%ADD20R,0.800000X1.100000*%
%ADD21R,1.000000X1.200000*%
%ADD22R,0.914400X0.914400*%
%ADD23R,0.406400X1.600000*%
%ADD24R,1.600200X1.600200*%
%ADD25C,1.600200*%
%ADD26R,1.200000X1.200000*%
%ADD27C,1.200000*%
%ADD28R,2.032000X2.032000*%
%ADD29O,2.032000X2.032000*%
G04 APERTURE END LIST*
D10*
D11*
X-66718571Y540381D02*
X-66718571Y1556381D01*
X-66428286Y1556381D01*
X-66355714Y1508000D01*
X-66319429Y1459619D01*
X-66283143Y1362857D01*
X-66283143Y1217714D01*
X-66319429Y1120952D01*
X-66355714Y1072571D01*
X-66428286Y1024190D01*
X-66718571Y1024190D01*
X-66029143Y1556381D02*
X-65847714Y540381D01*
X-65702571Y1266095D01*
X-65557429Y540381D01*
X-65376000Y1556381D01*
X-64650286Y540381D02*
X-64904286Y1024190D01*
X-65085714Y540381D02*
X-65085714Y1556381D01*
X-64795429Y1556381D01*
X-64722857Y1508000D01*
X-64686572Y1459619D01*
X-64650286Y1362857D01*
X-64650286Y1217714D01*
X-64686572Y1120952D01*
X-64722857Y1072571D01*
X-64795429Y1024190D01*
X-65085714Y1024190D01*
X-65054857Y9588762D02*
X-64946000Y9540381D01*
X-64764571Y9540381D01*
X-64692000Y9588762D01*
X-64655714Y9637143D01*
X-64619429Y9733905D01*
X-64619429Y9830667D01*
X-64655714Y9927429D01*
X-64692000Y9975810D01*
X-64764571Y10024190D01*
X-64909714Y10072571D01*
X-64982286Y10120952D01*
X-65018571Y10169333D01*
X-65054857Y10266095D01*
X-65054857Y10362857D01*
X-65018571Y10459619D01*
X-64982286Y10508000D01*
X-64909714Y10556381D01*
X-64728286Y10556381D01*
X-64619429Y10508000D01*
X-64365429Y10556381D02*
X-64184000Y9540381D01*
X-64038857Y10266095D01*
X-63893715Y9540381D01*
X-63712286Y10556381D01*
X-63422000Y9540381D02*
X-63422000Y10556381D01*
X-63240572Y10556381D01*
X-63131715Y10508000D01*
X-63059143Y10411238D01*
X-63022858Y10314476D01*
X-62986572Y10120952D01*
X-62986572Y9975810D01*
X-63022858Y9782286D01*
X-63059143Y9685524D01*
X-63131715Y9588762D01*
X-63240572Y9540381D01*
X-63422000Y9540381D01*
D12*
X-71071428Y3892857D02*
X-69928571Y3892857D01*
X-70500000Y3321429D02*
X-70500000Y4464286D01*
D11*
X-69517400Y6196800D02*
X-70482600Y6196800D01*
X-69517400Y6603200D02*
X-70482600Y6603200D01*
X-69365000Y5893600D02*
X-69365000Y4699800D01*
X-70635000Y5893600D02*
X-70635000Y4699800D01*
X-69390400Y4674400D02*
G75*
G02X-70635000Y4699800I-609600J635000D01*
G01*
X-69390400Y8125600D02*
G75*
G03X-70635000Y8100200I-609600J-635000D01*
G01*
X-70635000Y6906400D02*
X-70635000Y8100200D01*
X-69365000Y6906400D02*
X-69365000Y8100200D01*
X-70531000Y8222400D02*
G75*
G03X-70531000Y8222400I-127000J0D01*
G01*
X-65682600Y6603200D02*
X-64717400Y6603200D01*
X-65682600Y6196800D02*
X-64717400Y6196800D01*
X-65835000Y6906400D02*
X-65835000Y8100200D01*
X-64565000Y6906400D02*
X-64565000Y8100200D01*
X-65809600Y8125600D02*
G75*
G02X-64565000Y8100200I609600J-635000D01*
G01*
X-65809600Y4674400D02*
G75*
G03X-64565000Y4699800I609600J635000D01*
G01*
X-64565000Y5893600D02*
X-64565000Y4699800D01*
X-65835000Y5893600D02*
X-65835000Y4699800D01*
X-64415000Y4577600D02*
G75*
G03X-64415000Y4577600I-127000J0D01*
G01*
X-71800000Y5600000D02*
X-71800000Y5050000D01*
X-71800000Y6400000D02*
X-71800000Y6950000D01*
X-70950000Y6950000D02*
X-72650000Y6950000D01*
X-72650000Y6950000D02*
X-72650000Y5050000D01*
X-72650000Y5050000D02*
X-70950000Y5050000D01*
X-70950000Y5050000D02*
X-70950000Y6950000D01*
D13*
X-71800000Y6400000D02*
X-71200000Y5600000D01*
X-71200000Y5600000D02*
X-72400000Y5600000D01*
X-72400000Y5600000D02*
X-71800000Y6300000D01*
X-71200000Y6400000D02*
X-72400000Y6400000D01*
D11*
X-66900000Y8100000D02*
X-66900000Y6700000D01*
X-66900000Y6700000D02*
X-66000000Y6700000D01*
X-66000000Y6700000D02*
X-66000000Y4700000D01*
X-68300000Y6700000D02*
X-68300000Y8100000D01*
X-69200000Y4700000D02*
X-69200000Y6700000D01*
X-69200000Y6700000D02*
X-68300000Y6700000D01*
X-66900000Y8100000D02*
X-68300000Y8100000D01*
X-66000000Y4700000D02*
X-69200000Y4700000D01*
D13*
X-69108579Y4650000D02*
G75*
G03X-69108579Y4650000I-141421J0D01*
G01*
D14*
X-55940000Y7278000D02*
X-63560000Y7278000D01*
X-63560000Y3722000D02*
X-55940000Y3722000D01*
X-55940000Y7278000D02*
X-55940000Y3722000D01*
D11*
X-63560000Y3722000D02*
X-63560000Y7278000D01*
X-62692790Y4230000D02*
G75*
G03X-62692790Y4230000I-359210J0D01*
G01*
X-63560000Y6135000D02*
X-62798000Y6135000D01*
X-62798000Y6135000D02*
X-62798000Y4865000D01*
X-62798000Y4865000D02*
X-63560000Y4865000D01*
D15*
X-54290000Y11580000D02*
X-55306000Y12342000D01*
X-55306000Y12342000D02*
X-55306000Y10818000D01*
X-55306000Y10818000D02*
X-54290000Y11580000D01*
D16*
X-48960000Y12850000D02*
X-48960000Y150000D01*
X-48960000Y150000D02*
X-54040000Y150000D01*
X-54040000Y150000D02*
X-54040000Y12850000D01*
X-54040000Y12850000D02*
X-48960000Y12850000D01*
D17*
X-61400000Y12800000D02*
X-61400000Y10800000D01*
X-63400000Y12800000D02*
X-63400000Y10800000D01*
X-63400000Y10800000D02*
X-55400000Y10800000D01*
X-55400000Y10800000D02*
X-55400000Y12800000D01*
X-55400000Y12800000D02*
X-63400000Y12800000D01*
D13*
X-69980000Y12520000D02*
X-67440000Y12520000D01*
X-72800000Y12800000D02*
X-71250000Y12800000D01*
X-69980000Y12520000D02*
X-69980000Y9980000D01*
X-71250000Y9700000D02*
X-72800000Y9700000D01*
X-72800000Y9700000D02*
X-72800000Y12800000D01*
X-69980000Y9980000D02*
X-67440000Y9980000D01*
X-67440000Y9980000D02*
X-67440000Y12520000D01*
X-70020000Y480000D02*
X-72560000Y480000D01*
X-67200000Y200000D02*
X-68750000Y200000D01*
X-70020000Y480000D02*
X-70020000Y3020000D01*
X-68750000Y3300000D02*
X-67200000Y3300000D01*
X-67200000Y3300000D02*
X-67200000Y200000D01*
X-70020000Y3020000D02*
X-72560000Y3020000D01*
X-72560000Y3020000D02*
X-72560000Y480000D01*
D11*
X-70118533Y8709714D02*
X-70152399Y8671010D01*
X-70253999Y8632305D01*
X-70321733Y8632305D01*
X-70423333Y8671010D01*
X-70491066Y8748419D01*
X-70524933Y8825829D01*
X-70558799Y8980648D01*
X-70558799Y9096762D01*
X-70524933Y9251581D01*
X-70491066Y9328990D01*
X-70423333Y9406400D01*
X-70321733Y9445105D01*
X-70253999Y9445105D01*
X-70152399Y9406400D01*
X-70118533Y9367695D01*
X-69508933Y9174171D02*
X-69508933Y8632305D01*
X-69678266Y9483810D02*
X-69847599Y8903238D01*
X-69407333Y8903238D01*
X-64418533Y8609714D02*
X-64452399Y8571010D01*
X-64553999Y8532305D01*
X-64621733Y8532305D01*
X-64723333Y8571010D01*
X-64791066Y8648419D01*
X-64824933Y8725829D01*
X-64858799Y8880648D01*
X-64858799Y8996762D01*
X-64824933Y9151581D01*
X-64791066Y9228990D01*
X-64723333Y9306400D01*
X-64621733Y9345105D01*
X-64553999Y9345105D01*
X-64452399Y9306400D01*
X-64418533Y9267695D01*
X-63808933Y9345105D02*
X-63944399Y9345105D01*
X-64012133Y9306400D01*
X-64045999Y9267695D01*
X-64113733Y9151581D01*
X-64147599Y8996762D01*
X-64147599Y8687124D01*
X-64113733Y8609714D01*
X-64079866Y8571010D01*
X-64012133Y8532305D01*
X-63876666Y8532305D01*
X-63808933Y8571010D01*
X-63775066Y8609714D01*
X-63741199Y8687124D01*
X-63741199Y8880648D01*
X-63775066Y8958057D01*
X-63808933Y8996762D01*
X-63876666Y9035467D01*
X-64012133Y9035467D01*
X-64079866Y8996762D01*
X-64113733Y8958057D01*
X-64147599Y8880648D01*
D18*
X-72390476Y8638095D02*
X-72390476Y9438095D01*
X-72200000Y9438095D01*
X-72085714Y9400000D01*
X-72009523Y9323810D01*
X-71971428Y9247619D01*
X-71933333Y9095238D01*
X-71933333Y8980952D01*
X-71971428Y8828571D01*
X-72009523Y8752381D01*
X-72085714Y8676190D01*
X-72200000Y8638095D01*
X-72390476Y8638095D01*
X-71171428Y8638095D02*
X-71628571Y8638095D01*
X-71400000Y8638095D02*
X-71400000Y9438095D01*
X-71476190Y9323810D01*
X-71552381Y9247619D01*
X-71628571Y9209524D01*
X-68209524Y9238095D02*
X-68209524Y8590476D01*
X-68171429Y8514286D01*
X-68133333Y8476190D01*
X-68057143Y8438095D01*
X-67904762Y8438095D01*
X-67828571Y8476190D01*
X-67790476Y8514286D01*
X-67752381Y8590476D01*
X-67752381Y9238095D01*
X-66952381Y8438095D02*
X-67409524Y8438095D01*
X-67180953Y8438095D02*
X-67180953Y9238095D01*
X-67257143Y9123810D01*
X-67333334Y9047619D01*
X-67409524Y9009524D01*
D17*
X-65385714Y4047619D02*
X-65385714Y3238095D01*
X-65342857Y3142857D01*
X-65300000Y3095238D01*
X-65214286Y3047619D01*
X-65042857Y3047619D01*
X-64957143Y3095238D01*
X-64914286Y3142857D01*
X-64871429Y3238095D01*
X-64871429Y4047619D01*
X-64485714Y3952381D02*
X-64442857Y4000000D01*
X-64357143Y4047619D01*
X-64142857Y4047619D01*
X-64057143Y4000000D01*
X-64014286Y3952381D01*
X-63971429Y3857143D01*
X-63971429Y3761905D01*
X-64014286Y3619048D01*
X-64528572Y3047619D01*
X-63971429Y3047619D01*
D19*
X-55438667Y3356381D02*
X-55438667Y2630667D01*
X-55487047Y2485524D01*
X-55583809Y2388762D01*
X-55728952Y2340381D01*
X-55825714Y2340381D01*
X-55051619Y3356381D02*
X-54422667Y3356381D01*
X-54761333Y2969333D01*
X-54616191Y2969333D01*
X-54519429Y2920952D01*
X-54471048Y2872571D01*
X-54422667Y2775810D01*
X-54422667Y2533905D01*
X-54471048Y2437143D01*
X-54519429Y2388762D01*
X-54616191Y2340381D01*
X-54906476Y2340381D01*
X-55003238Y2388762D01*
X-55051619Y2437143D01*
D17*
X-64733333Y12347619D02*
X-64733333Y11633333D01*
X-64780953Y11490476D01*
X-64876191Y11395238D01*
X-65019048Y11347619D01*
X-65114286Y11347619D01*
X-64304762Y12252381D02*
X-64257143Y12300000D01*
X-64161905Y12347619D01*
X-63923809Y12347619D01*
X-63828571Y12300000D01*
X-63780952Y12252381D01*
X-63733333Y12157143D01*
X-63733333Y12061905D01*
X-63780952Y11919048D01*
X-64352381Y11347619D01*
X-63733333Y11347619D01*
D13*
X-65845238Y9988095D02*
X-65797619Y10130952D01*
X-65797619Y10369048D01*
X-65845238Y10464286D01*
X-65892857Y10511905D01*
X-65988095Y10559524D01*
X-66083333Y10559524D01*
X-66178571Y10511905D01*
X-66226190Y10464286D01*
X-66273810Y10369048D01*
X-66321429Y10178571D01*
X-66369048Y10083333D01*
X-66416667Y10035714D01*
X-66511905Y9988095D01*
X-66607143Y9988095D01*
X-66702381Y10035714D01*
X-66750000Y10083333D01*
X-66797619Y10178571D01*
X-66797619Y10416667D01*
X-66750000Y10559524D01*
X-65797619Y10988095D02*
X-66797619Y10988095D01*
X-66797619Y11369048D01*
X-66750000Y11464286D01*
X-66702381Y11511905D01*
X-66607143Y11559524D01*
X-66464286Y11559524D01*
X-66369048Y11511905D01*
X-66321429Y11464286D01*
X-66273810Y11369048D01*
X-66273810Y10988095D01*
X-65797619Y12511905D02*
X-65797619Y11940476D01*
X-65797619Y12226190D02*
X-66797619Y12226190D01*
X-66654762Y12130952D01*
X-66559524Y12035714D01*
X-66511905Y11940476D01*
X-66333333Y2947619D02*
X-66333333Y2233333D01*
X-66380953Y2090476D01*
X-66476191Y1995238D01*
X-66619048Y1947619D01*
X-66714286Y1947619D01*
X-65333333Y1947619D02*
X-65904762Y1947619D01*
X-65619048Y1947619D02*
X-65619048Y2947619D01*
X-65714286Y2804762D01*
X-65809524Y2709524D01*
X-65904762Y2661905D01*
%LPC*%
D20*
X-70000000Y7400000D03*
X-70000000Y5400000D03*
X-65200000Y5400000D03*
X-65200000Y7400000D03*
D21*
X-71800000Y7800000D03*
X-71800000Y4200000D03*
D22*
X-66711000Y5384000D03*
X-68489000Y5384000D03*
X-67600000Y7416000D03*
D23*
X-62675000Y2500000D03*
X-62025000Y2500000D03*
X-61375000Y2500000D03*
X-60725000Y2500000D03*
X-60075000Y2500000D03*
X-59425000Y2500000D03*
X-58775000Y2500000D03*
X-58125000Y2500000D03*
X-57475000Y2500000D03*
X-56825000Y2500000D03*
X-56825000Y8500000D03*
X-57475000Y8500000D03*
X-58125000Y8500000D03*
X-58775000Y8500000D03*
X-59425000Y8500000D03*
X-60075000Y8500000D03*
X-60725000Y8500000D03*
X-61375000Y8500000D03*
X-62025000Y8500000D03*
X-62671000Y8500000D03*
D24*
X-52770000Y11580000D03*
D25*
X-50230000Y11580000D03*
X-52770000Y9040000D03*
X-50230000Y9040000D03*
X-52770000Y6500000D03*
X-50230000Y6500000D03*
X-52770000Y3960000D03*
X-50230000Y3960000D03*
X-52770000Y1420000D03*
X-50230000Y1420000D03*
D26*
X-62400000Y11800000D03*
D27*
X-60400000Y11800000D03*
X-58400000Y11800000D03*
X-56400000Y11800000D03*
D28*
X-71250000Y11250000D03*
D29*
X-68710000Y11250000D03*
D28*
X-68750000Y1750000D03*
D29*
X-71290000Y1750000D03*
M02*
