G04 #@! TF.FileFunction,Copper,L2,Bot,Signal*
%FSLAX46Y46*%
G04 Gerber Fmt 4.6, Leading zero omitted, Abs format (unit mm)*
G04 Created by KiCad (PCBNEW (2015-07-02 BZR 5871, Git 766da1e)-product) date 15-9-2015 00:01:28*
%MOMM*%
G01*
G04 APERTURE LIST*
%ADD10C,0.100000*%
%ADD11R,1.100000X0.800000*%
%ADD12R,0.800000X1.100000*%
%ADD13R,0.914400X0.914400*%
%ADD14R,0.800000X1.092200*%
%ADD15R,1.600200X1.600200*%
%ADD16C,1.600200*%
%ADD17R,1.200000X1.200000*%
%ADD18C,1.200000*%
%ADD19R,2.032000X2.032000*%
%ADD20O,2.032000X2.032000*%
%ADD21R,1.092200X0.800000*%
%ADD22R,0.650000X2.000000*%
%ADD23C,0.609600*%
%ADD24C,0.254000*%
%ADD25C,0.152400*%
G04 APERTURE END LIST*
D10*
D11*
X-63500000Y1250000D03*
X-65500000Y1250000D03*
D12*
X-56000000Y3500000D03*
X-56000000Y1500000D03*
D11*
X-69250000Y9250000D03*
X-71250000Y9250000D03*
D12*
X-64250000Y12000000D03*
X-64250000Y10000000D03*
D13*
X-72139000Y5734000D03*
X-70361000Y5734000D03*
X-71250000Y7766000D03*
D14*
X-66000000Y10000000D03*
X-66000000Y12000000D03*
D15*
X-52770000Y11580000D03*
D16*
X-50230000Y11580000D03*
X-52770000Y9040000D03*
X-50230000Y9040000D03*
X-52770000Y6500000D03*
X-50230000Y6500000D03*
X-52770000Y3960000D03*
X-50230000Y3960000D03*
X-52770000Y1420000D03*
X-50230000Y1420000D03*
D17*
X-62400000Y11800000D03*
D18*
X-60400000Y11800000D03*
X-58400000Y11800000D03*
X-56400000Y11800000D03*
D19*
X-71250000Y11250000D03*
D20*
X-68710000Y11250000D03*
D19*
X-68750000Y1750000D03*
D20*
X-71290000Y1750000D03*
D12*
X-56000000Y9500000D03*
X-56000000Y7500000D03*
D21*
X-63400000Y3800000D03*
X-65400000Y3800000D03*
D22*
X-57595000Y1500000D03*
X-58865000Y1500000D03*
X-60135000Y1500000D03*
X-61405000Y1500000D03*
X-61405000Y8500000D03*
X-60135000Y8500000D03*
X-58865000Y8500000D03*
X-57595000Y8500000D03*
D23*
X-71904100Y6650200D03*
X-55161400Y8596500D03*
X-65125000Y11770000D03*
X-60032000Y3771900D03*
X-66446600Y3733400D03*
X-59204300Y6906500D03*
X-50868700Y10205400D03*
X-60524000Y6347400D03*
X-54260200Y2485600D03*
X-59524200Y5234800D03*
X-62289000Y3771800D03*
X-57271400Y9960400D03*
X-58716100Y4062700D03*
X-58285100Y6286200D03*
X-61085900Y3915000D03*
D24*
X-64250000Y10000000D02*
X-63570300Y10000000D01*
X-72083400Y6470900D02*
X-71904100Y6650200D01*
X-72139000Y6470900D02*
X-72083400Y6470900D01*
X-72139000Y5734000D02*
X-72139000Y6470900D01*
X-62400000Y11800000D02*
X-62400000Y11022000D01*
X-65500000Y1250000D02*
X-65500000Y910200D01*
X-66614500Y910200D02*
X-67454300Y1750000D01*
X-65500000Y910200D02*
X-66614500Y910200D01*
X-68750000Y1750000D02*
X-67454300Y1750000D01*
X-62400000Y11022000D02*
X-62400000Y10920200D01*
X-62650100Y10920200D02*
X-62400000Y10920200D01*
X-63570300Y10000000D02*
X-62650100Y10920200D01*
X-54509600Y10920200D02*
X-53849800Y11580000D01*
X-62400000Y10920200D02*
X-54509600Y10920200D01*
X-52770000Y11580000D02*
X-53849800Y11580000D01*
X-65160000Y570200D02*
X-65500000Y910200D01*
X-62334800Y570200D02*
X-65160000Y570200D01*
X-61405000Y1500000D02*
X-62334800Y570200D01*
X-56000000Y7500000D02*
X-55422000Y7500000D01*
X-56000000Y1500000D02*
X-55320300Y1500000D01*
X-55320300Y8437600D02*
X-55320300Y7500000D01*
X-55161400Y8596500D02*
X-55320300Y8437600D01*
X-55422000Y7500000D02*
X-55320300Y7500000D01*
X-55320300Y7500000D02*
X-55320300Y1500000D01*
X-65125000Y12000000D02*
X-65125000Y11770000D01*
X-64250000Y12000000D02*
X-65125000Y12000000D01*
X-65125000Y12000000D02*
X-66000000Y12000000D01*
X-63570300Y12255000D02*
X-63570300Y12000000D01*
X-63145600Y12679700D02*
X-63570300Y12255000D01*
X-61279700Y12679700D02*
X-63145600Y12679700D01*
X-60400000Y11800000D02*
X-61279700Y12679700D01*
X-64250000Y12000000D02*
X-63570300Y12000000D01*
X-58865000Y8500000D02*
X-58865000Y7220300D01*
X-60135000Y1500000D02*
X-60135000Y2779700D01*
X-60032000Y2882700D02*
X-60032000Y3771900D01*
X-60135000Y2779700D02*
X-60032000Y2882700D01*
X-56000000Y9500000D02*
X-55320300Y9500000D01*
X-65400000Y3800000D02*
X-66225800Y3800000D01*
X-66292400Y3733400D02*
X-66225800Y3800000D01*
X-66446600Y3733400D02*
X-66292400Y3733400D01*
X-56000000Y3500000D02*
X-56679700Y3500000D01*
X-58890500Y7220300D02*
X-59204300Y6906500D01*
X-58865000Y7220300D02*
X-58890500Y7220300D01*
X-54548000Y10272300D02*
X-55320300Y9500000D01*
X-51628300Y10272300D02*
X-54548000Y10272300D01*
X-50320600Y11580000D02*
X-51628300Y10272300D01*
X-50230000Y11580000D02*
X-50320600Y11580000D01*
X-56679700Y6305000D02*
X-57595000Y7220300D01*
X-56679700Y3500000D02*
X-56679700Y6305000D01*
X-57595000Y7220300D02*
X-58865000Y7220300D01*
X-57595000Y8313200D02*
X-57595000Y7220300D01*
X-57595000Y8313200D02*
X-57595000Y8329800D01*
X-57595000Y8500000D02*
X-57595000Y8329800D01*
X-56679700Y9245100D02*
X-56679700Y9500000D01*
X-57595000Y8329800D02*
X-56679700Y9245100D01*
X-56000000Y9500000D02*
X-56679700Y9500000D01*
D25*
X-68710000Y11250000D02*
X-68710000Y10005100D01*
X-69123800Y10005100D02*
X-69250000Y9878900D01*
X-69250000Y9250000D02*
X-69250000Y9878900D01*
X-68710000Y10005100D02*
X-69123800Y10005100D01*
X-66634000Y10005100D02*
X-68710000Y10005100D01*
X-66628900Y10000000D02*
X-66634000Y10005100D01*
X-66000000Y10000000D02*
X-66628900Y10000000D01*
X-71250000Y11250000D02*
X-71250000Y9250000D01*
X-71250000Y7766000D02*
X-71250000Y9250000D01*
X-51650000Y9424100D02*
X-50868700Y10205400D01*
X-51650000Y6164600D02*
X-51650000Y9424100D01*
X-52554000Y5260600D02*
X-51650000Y6164600D01*
X-53025000Y5260600D02*
X-52554000Y5260600D01*
X-53812700Y4472900D02*
X-53025000Y5260600D01*
X-53812700Y2793000D02*
X-53812700Y4472900D01*
X-52770000Y1750300D02*
X-53812700Y2793000D01*
X-52770000Y1420000D02*
X-52770000Y1750300D01*
X-51259100Y390900D02*
X-50230000Y1420000D01*
X-56165300Y390900D02*
X-51259100Y390900D01*
X-57041000Y1266600D02*
X-56165300Y390900D01*
X-57041000Y3591100D02*
X-57041000Y1266600D01*
X-59365800Y5915900D02*
X-57041000Y3591100D01*
X-60092500Y5915900D02*
X-59365800Y5915900D01*
X-60524000Y6347400D02*
X-60092500Y5915900D01*
X-54260200Y7549800D02*
X-54260200Y2485600D01*
X-52770000Y9040000D02*
X-54260200Y7549800D01*
X-70361000Y5734000D02*
X-69674900Y5734000D01*
X-69175700Y5234800D02*
X-59524200Y5234800D01*
X-69674900Y5734000D02*
X-69175700Y5234800D01*
X-63400000Y3800000D02*
X-63400000Y4428900D01*
X-57595000Y1500000D02*
X-57595000Y2728900D01*
X-63400000Y4428900D02*
X-62289000Y4428900D01*
X-62289000Y4428900D02*
X-62289000Y3771800D01*
X-57595000Y3713400D02*
X-57595000Y2728900D01*
X-58487800Y4606200D02*
X-57595000Y3713400D01*
X-62111700Y4606200D02*
X-58487800Y4606200D01*
X-62289000Y4428900D02*
X-62111700Y4606200D01*
X-57502900Y9728900D02*
X-57271400Y9960400D01*
X-60135000Y9728900D02*
X-57502900Y9728900D01*
X-60135000Y8500000D02*
X-60135000Y9728900D01*
X-58865000Y1500000D02*
X-58865000Y2728900D01*
X-58716200Y4062700D02*
X-58716100Y4062700D01*
X-58716200Y2877700D02*
X-58716200Y4062700D01*
X-58865000Y2728900D02*
X-58716200Y2877700D01*
X-59611200Y6286200D02*
X-58285100Y6286200D01*
X-60596100Y7271100D02*
X-59611200Y6286200D01*
X-61405000Y7271100D02*
X-60596100Y7271100D01*
X-61405000Y8500000D02*
X-61405000Y7271100D01*
X-63122000Y1878900D02*
X-63500000Y1878900D01*
X-61085900Y3915000D02*
X-63122000Y1878900D01*
X-63500000Y1250000D02*
X-63500000Y1878900D01*
M02*
