G04 #@! TF.FileFunction,Soldermask,Top*
%FSLAX46Y46*%
G04 Gerber Fmt 4.6, Leading zero omitted, Abs format (unit mm)*
G04 Created by KiCad (PCBNEW (2015-07-02 BZR 5871, Git 766da1e)-product) date 15-9-2015 00:01:28*
%MOMM*%
G01*
G04 APERTURE LIST*
%ADD10C,0.100000*%
%ADD11R,0.800000X1.100000*%
%ADD12R,1.000000X1.200000*%
%ADD13R,0.914400X0.914400*%
%ADD14R,0.406400X1.600000*%
%ADD15R,1.600200X1.600200*%
%ADD16C,1.600200*%
%ADD17R,1.200000X1.200000*%
%ADD18C,1.200000*%
%ADD19R,2.032000X2.032000*%
%ADD20O,2.032000X2.032000*%
G04 APERTURE END LIST*
D10*
D11*
X-70000000Y7400000D03*
X-70000000Y5400000D03*
X-65200000Y5400000D03*
X-65200000Y7400000D03*
D12*
X-71800000Y7800000D03*
X-71800000Y4200000D03*
D13*
X-66711000Y5384000D03*
X-68489000Y5384000D03*
X-67600000Y7416000D03*
D14*
X-62675000Y2500000D03*
X-62025000Y2500000D03*
X-61375000Y2500000D03*
X-60725000Y2500000D03*
X-60075000Y2500000D03*
X-59425000Y2500000D03*
X-58775000Y2500000D03*
X-58125000Y2500000D03*
X-57475000Y2500000D03*
X-56825000Y2500000D03*
X-56825000Y8500000D03*
X-57475000Y8500000D03*
X-58125000Y8500000D03*
X-58775000Y8500000D03*
X-59425000Y8500000D03*
X-60075000Y8500000D03*
X-60725000Y8500000D03*
X-61375000Y8500000D03*
X-62025000Y8500000D03*
X-62671000Y8500000D03*
D15*
X-52770000Y11580000D03*
D16*
X-50230000Y11580000D03*
X-52770000Y9040000D03*
X-50230000Y9040000D03*
X-52770000Y6500000D03*
X-50230000Y6500000D03*
X-52770000Y3960000D03*
X-50230000Y3960000D03*
X-52770000Y1420000D03*
X-50230000Y1420000D03*
D17*
X-62400000Y11800000D03*
D18*
X-60400000Y11800000D03*
X-58400000Y11800000D03*
X-56400000Y11800000D03*
D19*
X-71250000Y11250000D03*
D20*
X-68710000Y11250000D03*
D19*
X-68750000Y1750000D03*
D20*
X-71290000Y1750000D03*
M02*
