M48
;DRILL file {KiCad (2015-07-02 BZR 5871, Git 766da1e)-product} date 15-9-2015 00:01:31
;FORMAT={-:-/ absolute / metric / decimal}
FMAT,2
METRIC,TZ
T1C0.305
T2C0.700
T3C0.900
T4C1.016
%
G90
G05
M71
T1
X-71.904Y6.65
X-66.447Y3.733
X-65.125Y11.77
X-62.289Y3.772
X-61.086Y3.915
X-60.524Y6.347
X-60.032Y3.772
X-59.524Y5.235
X-59.204Y6.906
X-58.716Y4.063
X-58.285Y6.286
X-57.271Y9.96
X-55.161Y8.596
X-54.26Y2.486
X-50.869Y10.205
T2
X-62.4Y11.8
X-60.4Y11.8
X-58.4Y11.8
X-56.4Y11.8
T3
X-52.77Y11.58
X-52.77Y9.04
X-52.77Y6.5
X-52.77Y3.96
X-52.77Y1.42
X-50.23Y11.58
X-50.23Y9.04
X-50.23Y6.5
X-50.23Y3.96
X-50.23Y1.42
T4
X-71.29Y1.75
X-71.25Y11.25
X-68.75Y1.75
X-68.71Y11.25
T0
M30
