G04 #@! TF.FileFunction,Soldermask,Bot*
%FSLAX46Y46*%
G04 Gerber Fmt 4.6, Leading zero omitted, Abs format (unit mm)*
G04 Created by KiCad (PCBNEW (2015-07-02 BZR 5871, Git 766da1e)-product) date 15-9-2015 00:01:28*
%MOMM*%
G01*
G04 APERTURE LIST*
%ADD10C,0.100000*%
%ADD11R,1.100000X0.800000*%
%ADD12R,0.800000X1.100000*%
%ADD13R,0.914400X0.914400*%
%ADD14R,0.800000X1.092200*%
%ADD15R,1.600200X1.600200*%
%ADD16C,1.600200*%
%ADD17R,1.200000X1.200000*%
%ADD18C,1.200000*%
%ADD19R,2.032000X2.032000*%
%ADD20O,2.032000X2.032000*%
%ADD21R,1.092200X0.800000*%
%ADD22R,0.650000X2.000000*%
G04 APERTURE END LIST*
D10*
D11*
X-63500000Y1250000D03*
X-65500000Y1250000D03*
D12*
X-56000000Y3500000D03*
X-56000000Y1500000D03*
D11*
X-69250000Y9250000D03*
X-71250000Y9250000D03*
D12*
X-64250000Y12000000D03*
X-64250000Y10000000D03*
D13*
X-72139000Y5734000D03*
X-70361000Y5734000D03*
X-71250000Y7766000D03*
D14*
X-66000000Y10000000D03*
X-66000000Y12000000D03*
D15*
X-52770000Y11580000D03*
D16*
X-50230000Y11580000D03*
X-52770000Y9040000D03*
X-50230000Y9040000D03*
X-52770000Y6500000D03*
X-50230000Y6500000D03*
X-52770000Y3960000D03*
X-50230000Y3960000D03*
X-52770000Y1420000D03*
X-50230000Y1420000D03*
D17*
X-62400000Y11800000D03*
D18*
X-60400000Y11800000D03*
X-58400000Y11800000D03*
X-56400000Y11800000D03*
D19*
X-71250000Y11250000D03*
D20*
X-68710000Y11250000D03*
D19*
X-68750000Y1750000D03*
D20*
X-71290000Y1750000D03*
D12*
X-56000000Y9500000D03*
X-56000000Y7500000D03*
D21*
X-63400000Y3800000D03*
X-65400000Y3800000D03*
D22*
X-57595000Y1500000D03*
X-58865000Y1500000D03*
X-60135000Y1500000D03*
X-61405000Y1500000D03*
X-61405000Y8500000D03*
X-60135000Y8500000D03*
X-58865000Y8500000D03*
X-57595000Y8500000D03*
M02*
